HIERARCHY
ROOT Hips
{
	OFFSET 0.00000 0.00000 0.00000
	CHANNELS 6 Xposition Yposition Zposition Zrotation Yrotation Xrotation 
	JOINT LHipJoint
	{
		OFFSET 0 0 0
		CHANNELS 3 Zrotation Yrotation Xrotation
		JOINT LeftUpLeg
		{
			OFFSET 1.53139 -1.83434 0.76626
			CHANNELS 3 Zrotation Yrotation Xrotation
			JOINT LeftLeg
			{
				OFFSET 2.56112 -7.03663 0.00000
				CHANNELS 3 Zrotation Yrotation Xrotation
				JOINT LeftFoot
				{
					OFFSET 2.59983 -7.14299 0.00000
					CHANNELS 3 Zrotation Yrotation Xrotation
					JOINT LeftToeBase
					{
						OFFSET 0.13742 -0.37757 2.00054
						CHANNELS 3 Zrotation Yrotation Xrotation
						End Site
						{
							OFFSET 0.00000 -0.00000 1.02897
						}
					}
				}
			}
		}
	}
	JOINT RHipJoint
	{
		OFFSET 0 0 0
		CHANNELS 3 Zrotation Yrotation Xrotation
		JOINT RightUpLeg
		{
			OFFSET -1.40122 -1.83435 0.76627
			CHANNELS 3 Zrotation Yrotation Xrotation
			JOINT RightLeg
			{
				OFFSET -2.54052 -6.98003 0.00000
				CHANNELS 3 Zrotation Yrotation Xrotation
				JOINT RightFoot
				{
					OFFSET -2.63179 -7.23079 0.00000
					CHANNELS 3 Zrotation Yrotation Xrotation
					JOINT RightToeBase
					{
						OFFSET -0.24131 -0.66299 2.03908
						CHANNELS 3 Zrotation Yrotation Xrotation
						End Site
						{
							OFFSET -0.00000 -0.00000 1.07391
						}
					}
				}
			}
		}
	}
	JOINT LowerBack
	{
		OFFSET 0 0 0
		CHANNELS 3 Zrotation Yrotation Xrotation
		JOINT Spine
		{
			OFFSET 0.01174 2.10302 -0.29778
			CHANNELS 3 Zrotation Yrotation Xrotation
			JOINT Spine1
			{
				OFFSET 0.00772 2.13227 -0.01247
				CHANNELS 3 Zrotation Yrotation Xrotation
				JOINT Neck
				{
					OFFSET 0 0 0
					CHANNELS 3 Zrotation Yrotation Xrotation
					JOINT Neck1
					{
						OFFSET -0.09219 1.60848 0.31481
						CHANNELS 3 Zrotation Yrotation Xrotation
						JOINT Head
						{
							OFFSET 0.13974 1.65456 -0.31134
							CHANNELS 3 Zrotation Yrotation Xrotation
							End Site
							{
								OFFSET 0.04742 1.69515 -0.14578
							}
						}
					}
				}
				JOINT LeftShoulder
				{
					OFFSET 0 0 0
					CHANNELS 3 Zrotation Yrotation Xrotation
					JOINT LeftArm
					{
						OFFSET 3.24909 1.02882 -0.23993
						CHANNELS 3 Zrotation Yrotation Xrotation
						JOINT LeftForeArm
						{
							OFFSET 5.32955 -0.00000 -0.00000
							CHANNELS 3 Zrotation Yrotation Xrotation
							JOINT LeftHand
							{
								OFFSET 3.69232 -0.00000 -0.00000
								CHANNELS 3 Zrotation Yrotation Xrotation
								JOINT LeftFingerBase
								{
									OFFSET 0 0 0
									CHANNELS 3 Zrotation Yrotation Xrotation
									JOINT LeftHandIndex1
									{
										OFFSET 0.53660 -0.00000 -0.00000
										CHANNELS 3 Zrotation Yrotation Xrotation
										End Site
										{
											OFFSET 0.43262 -0.00000 -0.00000
										}
									}
								}
								JOINT LThumb
								{
									OFFSET 0 0 0
									CHANNELS 3 Zrotation Yrotation Xrotation
									End Site
									{
										OFFSET 0.43922 -0.00000 0.43922
									}
								}
							}
						}
					}
				}
				JOINT RightShoulder
				{
					OFFSET 0 0 0
					CHANNELS 3 Zrotation Yrotation Xrotation
					JOINT RightArm
					{
						OFFSET -3.21387 0.93002 -0.34594
						CHANNELS 3 Zrotation Yrotation Xrotation
						JOINT RightForeArm
						{
							OFFSET -5.23431 -0.00000 0.00000
							CHANNELS 3 Zrotation Yrotation Xrotation
							JOINT RightHand
							{
								OFFSET -3.55301 -0.00000 -0.00000
								CHANNELS 3 Zrotation Yrotation Xrotation
								JOINT RightFingerBase
								{
									OFFSET 0 0 0
									CHANNELS 3 Zrotation Yrotation Xrotation
									JOINT RightHandIndex1
									{
										OFFSET -0.77252 -0.00000 -0.00000
										CHANNELS 3 Zrotation Yrotation Xrotation
										End Site
										{
											OFFSET -0.62283 -0.00000 -0.00000
										}
									}
								}
								JOINT RThumb
								{
									OFFSET 0 0 0
									CHANNELS 3 Zrotation Yrotation Xrotation
									End Site
									{
										OFFSET -0.63234 -0.00000 0.63234
									}
								}
							}
						}
					}
				}
			}
		}
	}
}
MOTION
Frames: 7
Frame Time: .0083333
-12.9751 17.9039 -12.2005 0 0 0 0 0 0 -21 0 0 0 0 0 0 0 0 0 0 0 0 0 0 21 0 0 0 0 0 0 0 0 0 0 0 0 0 0 0 0 0 0 0 0 0 0 -16 0 0 21 0 0 11 0 0 0 -8 0 0 0 0 0 0 0 0 0 0 0 0 0 0 0 0 0 0 0 0 8 0 0 0 0 0 0 0 0 0 0 0 0 0 0 0 0 0
-12.9751 17.9039 -12.2005 0.7003 0.9288 -1.7102 0.0000 0.0000 0.0000 -21.3966 -2.3607 2.2268 7.2827 15.5654 49.9355 1.2920 -3.9030 23.1965 0.0953 1.9906 5.4797 0.0000 0.0000 0.0000 22.9783 7.4496 -14.0467 -2.1151 -9.1018 26.1144 -0.1066 1.8752 -5.8011 -0.2234 -3.0426 8.3973 -1.8776 -0.8226 11.5238 1.3922 -1.2528 1.0042 2.7184 -0.5593 -5.3398 -12.3810 -5.5212 -21.8890 9.4927 -6.4441 27.3220 4.7024 -2.8480 13.6582 -0.0000 -0.0000 0.0000 -86.6539 0.4755 27.6784 18.1910 -28.4011 -4.6397 -0.0000 -0.0000 7.4374 20.3144 24.1539 8.6137 -7.1250 0.0000 -0.0000 -9.7214 55.2729 -2.4689 -0.0000 -0.0000 0.0000 90.0654 -6.8093 4.6908 -12.3707 20.3582 -2.2296 0.0000 0.0000 12.5764 -14.2652 9.7219 -2.4584 7.1250 -0.0000 -0.0000 9.0577 -20.0152 5.4786
-12.9896 17.9108 -12.0512 0.5052 0.8474 -1.8540 0.0000 0.0000 0.0000 -21.0009 -2.4798 0.9278 7.8048 15.9738 51.8566 1.0786 -4.0824 21.4892 0.0578 1.5509 4.2659 0.0000 0.0000 0.0000 23.3640 7.2303 -13.2148 -2.0833 -9.0375 25.9126 -0.1359 2.0047 -6.5562 -0.3391 -3.7421 10.3523 -1.6470 -0.7646 11.5946 1.3900 -1.1471 1.0054 2.5707 -0.5117 -5.3889 -12.5210 -5.5825 -21.6260 9.5968 -6.5465 27.2710 4.7490 -2.8997 13.6067 0.0000 -0.0000 0.0000 -86.6180 0.6949 27.6276 18.1861 -28.3948 -4.6374 -0.0000 -0.0000 7.7907 20.4308 24.4744 8.7730 -7.1250 0.0000 -0.0000 -9.7401 55.6224 -2.5566 0.0000 -0.0000 0.0000 90.0756 -6.6096 4.9274 -12.4640 20.4968 -2.2621 0.0000 0.0000 12.3821 -14.2566 9.5583 -2.4160 7.1250 -0.0000 -0.0000 9.0685 -20.1820 5.4509
-13.0067 17.9153 -11.8962 0.3657 0.8649 -1.9745 0.0000 0.0000 0.0000 -20.6469 -2.6399 -0.1579 8.2360 16.2901 53.4082 0.9081 -4.0757 19.9184 0.0616 1.6016 4.4060 0.0000 0.0000 0.0000 23.7118 6.9632 -12.4609 -2.0563 -8.9824 25.7404 -0.1423 1.9758 -6.7133 -0.2111 -2.9583 8.1626 -1.5510 -0.7255 11.5419 1.3985 -1.0818 1.0645 2.5129 -0.4835 -5.3025 -12.5689 -5.6539 -21.5422 9.6655 -6.6666 27.2670 4.7630 -2.9501 13.6099 -0.0000 -0.0000 0.0000 -86.6390 0.8322 27.4168 18.2015 -28.4144 -4.6447 -0.0000 -0.0000 8.1549 20.0761 24.9544 8.7656 -7.1250 0.0000 -0.0000 -10.3268 56.0369 -2.8172 -0.0000 -0.0000 0.0000 90.0610 -6.3515 5.1761 -12.5746 20.6607 -2.3010 0.0000 0.0000 12.2810 -14.3261 9.3631 -2.3792 7.1250 -0.0000 -0.0000 9.0249 -20.3769 5.3840
-13.0189 17.9209 -11.7446 0.3049 0.5958 -2.0169 0.0000 0.0000 0.0000 -20.4266 -2.6549 -1.3555 8.6433 16.5726 54.8483 0.7445 -3.9373 18.1947 0.0494 1.4338 3.9434 0.0000 0.0000 0.0000 23.9735 6.7756 -11.7974 -2.0165 -8.9004 25.4843 -0.1761 2.4318 -7.4581 -0.0751 -1.7682 4.8656 -1.5064 -0.5982 11.4576 1.3824 -0.9074 1.0557 2.4417 -0.3991 -5.2751 -12.4881 -5.6278 -21.4280 9.5655 -6.6433 27.3043 4.7143 -2.9477 13.5903 0.0000 0.0000 0.0000 -86.6971 1.1273 27.1008 18.2719 -28.5040 -4.6783 -0.0000 -0.0000 8.2038 20.1631 24.7255 8.7317 -7.1250 0.0000 -0.0000 -10.1314 55.8228 -2.7103 0.0000 0.0000 0.0000 90.0072 -6.2640 5.6998 -12.7923 20.9821 -2.3784 0.0000 0.0000 11.8235 -14.5435 9.3524 -2.4141 7.1250 -0.0000 -0.0000 8.8701 -20.3769 5.2895
-13.0327 17.9335 -11.5908 0.2305 0.4563 -2.0930 0.0000 0.0000 0.0000 -20.1700 -2.7846 -2.5954 8.9927 16.8030 56.0650 0.6150 -3.6814 16.6089 0.0307 1.1304 3.1076 0.0000 0.0000 0.0000 24.2417 6.5099 -11.0361 -1.9627 -8.7879 25.1341 -0.1959 2.5837 -7.8664 -0.0372 -1.2454 3.4244 -1.4696 -0.5367 11.3509 1.3873 -0.8199 1.0477 2.4104 -0.3573 -5.2291 -12.4730 -5.5762 -21.0957 9.4131 -6.5659 27.2916 4.6646 -2.9405 13.4971 0.0000 -0.0000 0.0000 -86.8541 1.4151 26.5773 18.2938 -28.5318 -4.6887 -0.0000 -0.0000 8.0984 20.3436 24.5812 8.7680 -7.1250 0.0000 -0.0000 -9.8783 55.7134 -2.6153 0.0000 -0.0000 0.0000 89.9203 -6.1171 6.1520 -12.9809 21.2592 -2.4464 0.0000 0.0000 11.3066 -14.6110 9.5949 -2.4880 7.1250 -0.0000 -0.0000 8.8153 -20.1264 5.3062
-13.0453 17.9455 -11.4383 0.1022 0.4470 -2.2567 0.0000 0.0000 0.0000 -19.8818 -3.0204 -3.7016 9.2956 16.9942 57.1070 0.4843 -3.4454 14.8591 0.0000 -0.0392 -0.1078 0.0000 0.0000 0.0000 24.5681 6.2290 -10.1491 -1.9084 -8.6727 24.7766 -0.2152 2.4311 -8.2576 -0.0447 -1.3647 3.7530 -1.3524 -0.4895 11.3100 1.3899 -0.7422 1.1118 2.3332 -0.3232 -5.1444 -12.5219 -5.5956 -20.8470 9.3909 -6.6003 27.2744 4.6580 -2.9695 13.4440 0.0000 -0.0000 0.0000 -86.9840 1.5685 26.1341 18.3363 -28.5856 -4.7090 -0.0000 -0.0000 7.8230 20.3117 24.9044 8.8594 -7.1250 0.0000 -0.0000 -10.0573 56.0350 -2.7421 0.0000 -0.0000 0.0000 89.9070 -5.8120 6.3285 -13.0966 21.4286 -2.4885 0.0000 0.0000 10.6853 -14.5633 9.4630 -2.4458 7.1250 -0.0000 -0.0000 8.8529 -20.2632 5.3018
